<?xml version="1.0" standalone="no"?>
<!DOCTYPE svg PUBLIC "-//W3C//DTD SVG 20010904//EN"
 "http://www.w3.org/TR/2001/REC-SVG-20010904/DTD/svg10.dtd">
<svg version="1.0" xmlns="http://www.w3.org/2000/svg"
 width="1256.000000pt" height="1256.000000pt" viewBox="0 0 1256.000000 1256.000000"
 preserveAspectRatio="xMidYMid meet">
<metadata>
Created by potrace 1.11, written by Peter Selinger 2001-2013
</metadata>
<g transform="translate(0.000000,1256.000000) scale(0.100000,-0.100000)"
fill="#000000" stroke="none">
<path d="M5949 12546 c-2 -3 -53 -7 -114 -11 -60 -3 -121 -8 -135 -10 -14 -2
-56 -6 -95 -10 -82 -7 -248 -29 -305 -40 -13 -3 -40 -7 -60 -10 -35 -5 -61
-10 -110 -20 -14 -2 -41 -7 -60 -10 -19 -3 -63 -12 -98 -20 -34 -8 -74 -17
-90 -20 -15 -2 -88 -21 -162 -40 -74 -19 -143 -37 -152 -40 -35 -8 -306 -95
-389 -124 -322 -113 -682 -278 -1014 -466 -319 -180 -702 -452 -984 -699 -180
-156 -442 -412 -534 -520 -23 -26 -54 -60 -68 -75 -14 -14 -59 -66 -100 -116
-41 -49 -77 -92 -80 -95 -12 -10 -227 -298 -255 -341 -16 -24 -32 -46 -35 -49
-23 -18 -252 -391 -338 -550 -67 -124 -201 -397 -235 -480 -15 -36 -36 -84
-47 -107 -43 -96 -133 -342 -199 -548 -60 -188 -162 -612 -186 -773 -3 -20 -7
-44 -9 -52 -3 -8 -7 -31 -9 -50 -28 -195 -36 -255 -41 -315 -3 -38 -8 -81 -10
-95 -26 -160 -27 -1021 -1 -1157 2 -10 7 -54 10 -98 4 -44 9 -87 11 -95 2 -8
7 -40 10 -70 3 -30 8 -67 11 -82 17 -109 14 -95 49 -283 15 -77 30 -153 35
-170 5 -16 12 -43 15 -60 13 -74 75 -304 124 -457 197 -616 480 -1188 845
-1708 82 -116 281 -376 341 -445 159 -182 222 -250 361 -389 251 -250 392
-371 745 -639 139 -106 497 -333 689 -436 107 -58 436 -221 445 -221 3 0 32
-12 63 -26 225 -103 631 -243 892 -309 58 -14 119 -30 135 -35 17 -5 41 -11
55 -14 14 -2 69 -14 123 -25 54 -11 140 -28 190 -36 51 -9 106 -18 122 -21 34
-6 58 -9 135 -19 30 -3 62 -8 70 -10 8 -2 51 -7 95 -11 44 -3 87 -8 96 -9 137
-27 981 -26 1159 0 14 2 54 6 90 10 59 5 157 17 250 31 19 3 53 7 75 10 22 3
72 12 110 19 39 8 84 17 100 19 17 3 71 15 120 26 50 11 119 27 155 35 84 19
168 41 255 67 39 12 75 23 82 24 30 6 310 101 413 141 606 233 1171 555 1668
950 133 105 261 216 380 328 79 74 293 287 328 327 225 254 333 386 469 574
47 66 89 124 94 130 43 53 257 401 342 557 56 101 203 402 234 478 14 35 32
78 39 94 8 17 18 41 24 55 5 14 17 41 25 60 35 82 112 305 187 545 11 33 39
142 64 242 46 185 74 321 101 486 3 17 8 39 10 47 2 8 7 38 10 65 3 28 7 64
10 80 9 55 14 100 20 170 4 39 8 81 10 95 26 172 27 1021 1 1157 -2 10 -7 53
-11 96 -3 43 -8 86 -9 95 -2 9 -7 44 -11 77 -4 32 -9 68 -11 79 -2 11 -6 38
-9 61 -3 22 -12 74 -20 115 -8 41 -17 90 -20 108 -8 50 -33 163 -44 200 -5 18
-10 35 -10 37 1 36 -131 502 -161 570 -5 11 -14 38 -21 60 -6 22 -30 87 -53
145 -22 58 -41 107 -41 110 -1 3 -6 16 -12 30 -6 14 -28 66 -48 115 -49 118
-206 438 -267 544 -26 46 -48 86 -48 88 0 15 -233 378 -344 538 -37 52 -188
248 -255 330 -229 281 -536 592 -816 826 -373 313 -759 568 -1203 795 -101 52
-190 94 -197 94 -8 0 -15 5 -15 10 0 6 -8 10 -18 10 -10 0 -22 4 -28 8 -9 8
-223 101 -244 107 -3 0 -43 16 -90 34 -164 64 -508 176 -637 206 -10 3 -63 15
-118 29 -116 28 -334 73 -445 91 -25 4 -52 9 -61 10 -9 2 -40 6 -69 10 -29 4
-62 8 -73 11 -10 2 -45 6 -76 10 -31 3 -68 7 -84 9 -15 2 -60 6 -100 10 -39 3
-94 8 -122 11 -58 7 -780 15 -786 10z"/>
</g>
</svg>
