<?xml version="1.0" standalone="no"?>
<!DOCTYPE svg PUBLIC "-//W3C//DTD SVG 20010904//EN"
 "http://www.w3.org/TR/2001/REC-SVG-20010904/DTD/svg10.dtd">
<svg version="1.0" xmlns="http://www.w3.org/2000/svg"
 width="384.000000pt" height="384.000000pt" viewBox="0 0 384.000000 384.000000"
 preserveAspectRatio="xMidYMid meet">
<metadata>
Created by potrace 1.11, written by Peter Selinger 2001-2013
</metadata>
<g transform="translate(0.000000,384.000000) scale(0.100000,-0.100000)"
fill="#000000" stroke="none">
<path d="M0 1920 l0 -1920 1920 0 1920 0 0 1920 0 1920 -587 0 -586 0 19 -22
c10 -13 35 -40 56 -60 21 -21 38 -44 38 -50 0 -8 -7 -5 -15 6 -8 11 -15 16
-15 12 0 -5 -7 -3 -15 4 -19 16 -19 1 0 -24 8 -10 12 -23 9 -28 -4 -6 13 -30
37 -54 l42 -43 -28 -11 c-27 -10 -27 -11 -10 -30 10 -11 26 -22 36 -25 11 -4
19 -12 19 -20 0 -8 9 -17 21 -20 11 -4 24 -18 30 -32 7 -19 15 -24 29 -20 11
3 20 1 20 -4 0 -5 9 -9 19 -9 11 0 23 -5 27 -11 3 -6 -1 -10 -12 -9 -11 1 -21
2 -24 1 -20 -7 -480 -5 -480 2 0 4 -5 5 -11 2 -5 -4 -33 -8 -62 -9 -30 -2 -53
-8 -55 -16 -7 -19 -39 -43 -63 -47 -11 -2 -33 -13 -48 -24 -14 -11 -48 -35
-76 -52 -27 -18 -56 -45 -64 -61 -8 -16 -26 -44 -42 -61 -27 -30 -31 -30 -124
-32 -53 -2 -94 1 -91 5 3 5 -11 14 -29 21 l-35 12 26 51 c18 36 22 54 15 61
-8 8 -11 7 -11 -3 -1 -8 -9 -32 -19 -53 -17 -36 -18 -37 -34 -19 -9 10 -17 24
-17 30 0 7 -5 12 -11 12 -11 0 -8 46 6 97 3 10 -3 1 -13 -19 -9 -21 -19 -38
-22 -38 -3 0 -19 26 -36 57 -30 56 -33 58 -90 72 -32 8 -62 18 -65 23 -3 5
-23 9 -45 8 -21 -1 -122 -1 -224 -1 -102 -1 -216 -4 -255 -8 l-70 -8 90 -3
c70 -3 78 -4 35 -7 -30 -2 -59 -10 -65 -17 -5 -7 -30 -16 -55 -20 -24 -4 -51
-13 -60 -20 -13 -12 -24 -10 -72 11 -32 14 -58 30 -58 35 0 5 4 7 9 4 14 -9
41 4 41 19 0 7 -20 25 -45 40 l-46 26 -61 -58 c-125 -121 -144 -134 -132 -95
4 13 2 12 -7 -3 -7 -11 -23 -37 -36 -58 -14 -22 -27 -36 -30 -33 -4 3 1 14 9
23 15 18 31 53 23 53 -7 0 -75 -115 -75 -128 0 -10 5 -10 20 -2 11 6 19 16 17
23 -1 6 8 13 20 15 13 2 29 13 37 24 17 24 39 14 30 -14 -7 -24 -43 -66 -66
-79 -10 -5 -27 -5 -42 1 -18 6 -26 6 -26 -1 0 -6 14 -16 30 -22 36 -14 40 -26
5 -19 -14 2 -25 8 -25 13 0 5 -9 9 -21 9 -11 0 -17 5 -14 10 3 6 1 10 -4 10
-13 0 -14 49 -2 68 4 8 10 13 12 12 2 -1 13 2 23 6 18 7 18 8 -4 16 -21 8 -22
11 -15 71 4 34 9 81 10 105 l3 42 -46 0 c-25 0 -42 3 -39 7 4 3 2 12 -4 20 -9
10 -6 13 17 13 16 0 36 4 43 9 10 6 0 8 -28 4 -36 -5 -46 -2 -71 22 -24 23
-27 30 -17 46 6 10 18 21 26 24 10 4 9 0 -4 -15 -27 -29 -15 -32 18 -4 15 13
23 24 17 24 -6 0 -8 5 -5 10 3 6 1 10 -6 10 -8 0 -8 4 -2 13 15 19 22 57 11
57 -6 0 -6 6 2 14 6 8 18 12 26 9 8 -3 14 0 14 6 0 6 11 11 25 11 14 0 25 -5
25 -10 0 -6 -6 -10 -12 -9 -24 3 -38 -1 -38 -11 0 -10 35 -9 46 2 3 4 12 4 19
2 7 -3 15 2 18 10 4 9 2 16 -3 16 -6 0 -10 25 -10 55 l0 55 -190 0 -190 0 0
-1920z m2915 1900 c3 -5 1 -10 -4 -10 -6 0 -11 5 -11 10 0 6 2 10 4 10 3 0 8
-4 11 -10z m135 -150 c0 -5 -2 -10 -4 -10 -3 0 -8 5 -11 10 -3 6 -1 10 4 10 6
0 11 -4 11 -10z m438 -257 c2 -13 6 -23 10 -23 4 0 7 -20 7 -43 l0 -44 -37 35
c-21 20 -38 41 -38 47 0 7 -10 15 -22 19 -22 5 -22 6 -3 21 30 23 79 15 83
-12z m-483 -43 c3 -5 -3 -10 -15 -10 -12 0 -18 5 -15 10 3 6 10 10 15 10 5 0
12 -4 15 -10z m-1527 -9 c9 -5 -1 -14 -35 -29 -49 -21 -68 -15 -55 17 6 14 7
14 10 -1 4 -19 22 -25 22 -8 0 6 6 10 13 9 6 -1 19 -1 27 0 13 1 13 2 0 11 -8
5 -10 10 -5 10 6 0 16 -4 23 -9z m887 -1 c-3 -5 -12 -10 -18 -10 -7 0 -6 4 3
10 19 12 23 12 15 0z m80 -5 c-27 -6 -61 -15 -75 -19 -18 -5 -16 -1 10 13 20
12 52 20 75 19 l40 0 -50 -13z m-865 -5 c0 -5 -5 -10 -11 -10 -5 0 -7 5 -4 10
3 6 8 10 11 10 2 0 4 -4 4 -10z m-917 -9 c10 -1 9 -99 -2 -105 -15 -10 -40 5
-35 19 3 7 0 16 -6 20 -8 5 -5 11 7 21 17 12 17 13 1 14 -10 0 -18 4 -18 10 0
6 9 6 25 0 19 -7 23 -6 18 5 -3 8 -9 13 -13 10 -5 -3 -11 -1 -14 4 -4 5 2 8
11 6 10 -2 21 -4 26 -4z m860 -8 c-7 -2 -19 -2 -25 0 -7 3 -2 5 12 5 14 0 19
-2 13 -5z m1560 -11 c-2 -6 4 -9 12 -6 11 4 13 2 9 -9 -3 -8 -1 -18 4 -21 7
-4 7 -19 2 -39 -5 -17 -11 -56 -15 -85 -4 -28 -14 -61 -23 -71 -21 -25 -86
-36 -104 -18 -17 17 -51 30 -43 17 10 -16 -7 -12 -27 7 -20 18 -24 33 -7 33 5
0 7 -4 4 -10 -3 -5 3 -10 14 -10 12 0 21 5 21 10 0 6 -5 10 -11 10 -6 0 -8 7
-5 16 5 12 2 15 -9 10 -21 -8 -32 23 -14 36 10 7 6 8 -13 4 -21 -5 -28 -3 -28
9 0 8 4 15 9 15 4 0 6 11 3 25 -3 16 0 25 9 25 10 0 10 3 2 11 -6 6 -9 17 -6
25 3 9 -2 12 -17 9 -13 -2 -20 -1 -16 2 12 12 40 12 48 0 6 -9 8 -9 8 0 0 6
13 11 30 11 17 -1 30 -5 30 -10 0 -4 5 -8 11 -8 5 0 7 4 4 10 -4 6 6 7 25 4
17 -4 30 -2 30 4 0 5 15 9 33 8 18 -2 31 -7 30 -14z m420 -59 c14 -32 35 -84
47 -115 12 -32 26 -58 32 -58 7 0 6 -5 -1 -14 -10 -11 -19 -12 -42 -4 -17 6
-28 13 -25 15 13 13 -80 160 -121 193 l-26 20 29 2 c16 1 37 2 47 1 9 0 17 4
17 9 0 24 20 1 43 -49z m-2917 26 c3 -6 1 -16 -6 -22 -10 -9 -12 -8 -7 5 3 9
1 19 -6 22 -9 3 -9 5 0 5 6 1 15 -4 19 -10z m2115 -6 c24 -4 27 -10 33 -61 4
-31 9 -73 12 -93 5 -28 1 -41 -21 -67 -15 -18 -24 -32 -21 -32 3 0 1 -11 -4
-24 -7 -19 -5 -26 7 -30 13 -5 14 -9 4 -19 -9 -9 -14 -9 -21 3 -9 13 -11 13
-20 0 -7 -11 -9 -9 -6 11 1 13 5 29 8 34 12 23 17 45 8 45 -5 0 -11 -8 -13
-17 -2 -10 -3 2 -1 27 2 31 1 37 -4 20 -6 -17 -10 -21 -16 -12 -4 6 -13 12
-19 12 -7 0 -5 -5 4 -10 21 -12 23 -74 3 -90 -8 -7 -17 -10 -21 -6 -3 3 -1 6
6 6 7 0 9 5 6 10 -4 6 -11 7 -17 4 -7 -5 -9 2 -4 20 4 17 2 26 -6 26 -9 0 -9
3 0 12 16 16 15 28 -3 28 -9 0 -15 -9 -15 -22 0 -18 -2 -20 -9 -8 -6 8 -8 17
-5 21 8 14 -14 19 -40 10 -21 -9 -26 -7 -31 9 -7 23 -21 26 -27 8 -3 -8 -10
-4 -17 10 -14 26 -5 45 9 22 15 -24 11 2 -4 33 -14 25 -13 27 4 27 10 0 20 6
23 13 2 6 2 1 0 -13 -1 -14 1 -32 7 -40 7 -11 9 -8 7 15 -2 26 1 30 23 28 14
-1 18 0 9 3 -21 6 -31 41 -15 49 8 3 8 7 -1 11 -7 3 -13 11 -13 17 1 7 9 2 19
-10 11 -13 22 -23 25 -23 3 0 6 10 6 23 0 18 2 19 10 7 9 -13 10 -13 10 0 0
12 2 12 9 2 7 -11 9 -10 14 2 7 17 47 20 108 9z m159 -2 c0 -6 -4 -13 -10 -16
-5 -3 -10 1 -10 9 0 9 5 16 10 16 6 0 10 -4 10 -9z m-1969 -67 c-1 -41 -5 -53
-14 -47 -6 4 -8 0 -4 -10 10 -25 -10 -30 -30 -7 -10 11 -24 20 -31 20 -8 0 3
17 24 39 39 38 55 40 55 5z m778 -1 c10 -21 28 -47 40 -57 25 -23 26 -35 6
-62 -14 -18 -14 -17 -5 9 6 18 6 27 -1 27 -6 0 -13 -9 -16 -20 -9 -34 -18 -22
-17 23 0 24 -7 55 -18 73 -18 32 -22 44 -13 44 2 0 13 -17 24 -37z m726 17 c4
-6 1 -9 -6 -8 -19 4 -37 -51 -20 -61 9 -6 10 -11 3 -15 -16 -10 -45 39 -37 63
3 11 16 22 28 24 12 2 23 5 24 6 1 0 5 -4 8 -9z m-1198 -64 c18 -9 39 -16 48
-16 21 0 19 -23 -4 -44 -20 -19 -72 -13 -68 8 1 6 -6 10 -15 10 -14 -1 -18 6
-18 30 0 34 10 53 19 38 3 -5 20 -17 38 -26z m-907 20 c0 -2 -7 -7 -16 -10 -8
-3 -12 -2 -9 4 6 10 25 14 25 6z m945 -16 c3 -5 2 -10 -4 -10 -5 0 -13 5 -16
10 -3 6 -2 10 4 10 5 0 13 -4 16 -10z m1145 -50 c0 -5 -4 -10 -9 -10 -6 0 -13
5 -16 10 -3 6 1 10 9 10 9 0 16 -4 16 -10z m1267 -12 c-3 -8 -6 -5 -6 6 -1 11
2 17 5 13 3 -3 4 -12 1 -19z m-2867 0 c0 -9 4 -8 10 2 8 13 10 13 10 -2 0 -9
-6 -18 -12 -21 -7 -3 -3 -4 9 -4 12 1 25 7 28 15 3 8 0 10 -7 6 -7 -4 -8 -3
-4 4 14 23 28 12 24 -19 -3 -20 0 -33 9 -36 7 -3 13 -9 13 -13 0 -13 -29 -20
-36 -8 -4 7 -3 8 4 4 17 -10 15 3 -3 21 -20 20 -45 10 -45 -18 0 -39 -9 -15
-13 34 -3 26 0 47 4 47 5 0 9 -6 9 -12z m695 -41 c16 1 22 -1 13 -4 -15 -4
-16 -18 -12 -126 6 -156 4 -148 25 -142 15 5 16 0 12 -45 -4 -45 -2 -51 19
-59 13 -5 36 -7 51 -5 17 2 25 -1 21 -7 -4 -6 18 -9 61 -6 60 3 66 2 61 -15
-3 -10 -9 -28 -12 -40 -5 -21 -5 -21 8 2 8 14 22 36 31 50 10 16 14 37 11 60
-4 26 -2 31 5 20 6 -8 11 -10 11 -5 0 6 23 11 51 12 31 2 48 -1 44 -7 -3 -6
-2 -10 4 -10 5 0 13 5 17 11 4 7 24 9 54 5 55 -7 81 0 74 19 -9 23 15 27 38 5
19 -17 20 -20 4 -14 -16 6 -17 5 -7 -15 7 -12 9 -26 6 -31 -3 -5 3 -13 13 -19
11 -6 24 -32 32 -66 13 -53 30 -83 30 -52 0 30 -32 118 -45 123 -11 5 -10 10
5 27 11 11 20 25 20 31 0 5 6 2 13 -8 11 -15 22 -17 71 -11 60 8 68 13 23 17
-15 1 -27 8 -27 15 0 6 -9 15 -20 18 -32 10 -23 21 18 22 35 1 36 1 7 -6 l-30
-8 28 -7 c15 -5 27 -13 27 -20 0 -6 5 -4 10 4 6 10 10 11 10 3 0 -7 11 -13 25
-13 32 0 79 22 65 30 -16 10 0 41 19 38 10 -2 16 4 16 16 0 11 5 21 11 23 12
4 12 -26 0 -45 -4 -8 -14 -11 -22 -8 -7 3 -16 0 -20 -6 -4 -6 -3 -8 4 -4 5 3
12 1 14 -5 2 -6 23 8 47 31 34 33 45 39 52 29 6 -10 -1 -24 -26 -46 -19 -18
-31 -33 -26 -33 5 0 14 7 21 15 7 9 19 14 27 11 9 -4 12 -1 7 7 -5 9 -3 8 7
-1 12 -11 12 -14 -1 -23 -12 -7 -9 -9 10 -6 36 4 52 16 45 37 -6 20 30 36 40
16 3 -8 7 -8 11 2 7 14 34 16 34 2 0 -5 -4 -10 -10 -10 -5 0 -10 -4 -10 -10 0
-6 29 -10 68 -10 75 0 88 -5 69 -28 -10 -13 -7 -14 23 -9 18 4 37 12 40 18 4
5 20 12 36 15 16 3 30 7 33 10 2 2 10 -1 18 -7 7 -6 13 -8 13 -3 0 5 11 10 25
10 14 1 25 -3 25 -8 0 -6 13 -8 30 -6 24 4 27 2 19 -9 -9 -10 -8 -13 1 -13 7
0 10 -7 6 -16 -4 -10 5 -26 24 -44 16 -15 30 -30 30 -32 0 -3 -9 -15 -20 -28
-18 -20 -18 -25 -6 -39 15 -18 41 -97 39 -121 -1 -8 3 -18 9 -21 6 -4 12 -18
14 -32 2 -21 -3 -27 -28 -32 -27 -6 -29 -10 -25 -38 4 -27 3 -28 -10 -12 -12
17 -13 16 -9 -11 2 -16 7 -37 11 -47 4 -9 2 -23 -4 -31 -12 -14 -21 -137 -10
-130 4 2 10 23 14 46 6 35 8 39 15 23 5 -11 9 -14 9 -7 1 6 6 12 12 12 7 0 8
-11 4 -29 -6 -26 -4 -29 14 -24 12 3 21 9 21 14 0 5 7 9 15 9 8 0 15 5 15 10
0 6 8 10 18 10 25 0 47 26 62 75 12 37 14 38 22 16 4 -12 6 -27 3 -31 -3 -5 0
-10 7 -12 9 -3 8 -9 -5 -22 -9 -10 -17 -24 -17 -31 0 -20 -76 -51 -143 -59
-55 -7 -77 -19 -58 -30 5 -4 12 -2 16 4 3 5 14 10 23 10 13 0 14 -2 3 -9 -10
-7 -8 -12 9 -24 21 -15 21 -15 -21 -14 -24 1 -44 0 -44 -3 0 -3 -13 -26 -28
-52 -15 -27 -25 -48 -21 -48 4 0 -1 -9 -11 -20 -18 -20 -18 -21 0 -14 16 6 17
4 11 -17 -4 -13 -9 -36 -10 -51 -2 -24 -1 -26 12 -15 13 10 14 9 3 -10 -6 -13
-9 -23 -6 -23 4 0 0 -7 -9 -15 -8 -9 -13 -22 -10 -30 4 -8 0 -17 -8 -20 -10
-4 -13 -15 -10 -31 2 -13 0 -24 -6 -24 -5 0 -12 -9 -15 -20 -3 -11 -1 -18 4
-14 5 3 9 1 9 -5 0 -5 -5 -13 -11 -16 -6 -4 -8 -14 -4 -22 3 -9 -2 -27 -11
-41 -11 -17 -12 -22 -3 -16 8 4 3 -4 -10 -18 -14 -14 -31 -24 -38 -21 -16 6
-16 9 -1 36 10 20 10 21 -6 8 -10 -8 -16 -26 -15 -45 1 -17 -6 -44 -15 -61 -9
-16 -16 -36 -16 -42 0 -7 -7 -13 -15 -13 -7 0 -18 -7 -23 -16 -9 -16 -11 -16
-33 0 -13 9 -31 16 -40 16 -9 0 -22 7 -29 15 -15 18 -30 10 -30 -17 0 -11 -16
-36 -35 -55 -27 -27 -41 -34 -59 -29 -15 4 -26 1 -29 -7 -4 -7 -6 -6 -6 5 -1
9 4 18 9 20 13 4 20 57 11 82 -7 19 -8 19 -22 0 -10 -15 -28 -21 -68 -23 -44
-2 -57 1 -78 21 l-25 23 29 7 c22 5 18 6 -17 5 -39 -1 -53 5 -97 40 -29 22
-49 43 -46 47 4 3 -1 6 -11 6 -10 0 -36 13 -59 28 -44 30 -87 46 -87 32 0 -7
-44 -22 -75 -25 -5 0 -9 -6 -8 -13 4 -18 -17 -15 -69 10 -52 25 -55 30 -33 51
8 8 11 18 7 22 -4 4 11 4 33 1 l40 -6 -35 12 c-24 9 -36 20 -38 36 -4 24 10
29 26 9 12 -14 66 -22 57 -8 -3 6 1 16 9 23 12 11 11 15 -8 26 -12 7 -15 12
-6 11 8 -1 28 3 44 10 33 13 71 6 47 -8 -15 -10 -6 -31 13 -31 8 0 11 12 8 35
-2 19 -8 32 -13 29 -13 -8 -11 7 5 38 11 21 11 26 1 22 -7 -3 -16 0 -21 7 -4
7 -3 10 3 6 6 -4 16 0 23 8 8 10 31 15 69 15 68 0 148 23 173 50 10 10 18 31
18 46 0 49 57 113 75 84 3 -4 26 -11 51 -15 55 -8 94 -24 94 -39 0 -6 5 -5 12
2 19 19 26 14 30 -15 l3 -28 20 23 c11 12 25 22 32 22 7 0 13 5 13 10 0 6 6
10 14 10 8 0 18 5 22 12 4 7 3 8 -4 4 -7 -4 -20 -2 -29 3 -17 10 -17 10 0 11
9 0 17 4 17 8 0 4 -8 8 -17 8 -10 0 -31 3 -48 7 l-30 6 30 -14 30 -15 -28 3
c-16 2 -32 8 -35 13 -7 11 -52 26 -52 18 0 -3 10 -9 23 -14 16 -6 17 -9 5 -9
-9 -1 -24 6 -33 15 -9 10 -26 14 -40 12 -14 -3 -36 3 -52 13 -33 22 -55 25
-27 4 25 -19 13 -19 -28 1 -46 22 -143 171 -187 289 -10 27 -24 51 -31 53 -8
3 -10 0 -5 -8 12 -20 24 -80 14 -74 -5 3 -9 11 -9 19 0 8 -4 16 -9 19 -4 3 -7
-8 -5 -24 2 -17 -1 -30 -6 -30 -6 0 -10 -5 -10 -11 0 -8 4 -8 13 -2 27 21 52
8 73 -37 12 -24 20 -51 17 -60 -4 -13 -3 -13 5 -1 9 12 12 9 18 -15 5 -16 8
-31 9 -34 0 -3 13 -22 29 -43 34 -45 45 -122 14 -106 -13 7 -18 3 -26 -20 -5
-15 -8 -40 -5 -54 5 -26 -13 -38 -30 -20 -4 3 -19 8 -34 9 -14 2 -29 7 -32 12
-10 16 -91 0 -91 -18 0 -5 -9 -12 -20 -15 -13 -4 -23 -18 -27 -36 -7 -36 -17
-43 -51 -34 -20 5 -23 8 -11 16 11 7 10 9 -5 9 -18 0 -18 2 4 25 13 14 18 25
12 25 -6 0 -9 9 -7 20 4 20 1 23 -60 46 -21 8 -45 13 -82 18 -13 1 -26 6 -30
9 -3 4 -11 7 -17 7 -6 0 -5 -4 3 -9 9 -6 10 -11 2 -15 -16 -11 -13 -24 7 -28
9 -2 -12 -9 -48 -16 -36 -7 -66 -16 -68 -21 -2 -6 -10 -7 -18 -4 -8 3 -14 -1
-14 -8 0 -10 -3 -10 -12 -1 -18 18 -30 14 -19 -7 6 -10 18 -22 28 -26 27 -11
136 -18 130 -8 -4 7 23 9 71 4 7 0 10 -6 7 -11 -4 -6 -11 -8 -16 -5 -5 3 -6
-1 -3 -9 3 -9 14 -16 25 -16 16 0 17 -6 13 -52 -3 -29 -8 -60 -11 -68 -3 -8
-7 -28 -9 -43 -5 -39 -32 -88 -63 -117 -82 -76 -237 -180 -267 -180 -8 0 -23
-5 -34 -12 -16 -11 -23 -9 -41 10 -11 13 -26 21 -32 19 -12 -4 -17 -51 -9 -74
6 -18 41 -16 48 2 8 20 82 20 110 0 12 -8 40 -53 63 -100 23 -47 47 -85 52
-85 6 0 7 -6 3 -12 -4 -7 -3 -10 1 -5 10 8 45 -21 45 -37 0 -6 -5 -4 -10 4 -7
11 -10 11 -10 2 0 -7 10 -17 23 -22 19 -8 10 -15 -15 -11 -16 2 -7 -25 12 -42
13 -11 30 -15 48 -12 22 4 24 4 7 -4 -18 -8 -17 -10 10 -11 27 0 28 -2 11 -11
-15 -9 -16 -13 -5 -21 11 -8 10 -9 -3 -4 -10 3 -20 1 -23 -4 -4 -6 11 -10 34
-10 23 0 41 -4 41 -10 0 -13 57 -13 65 0 3 5 13 7 23 4 14 -5 15 -4 2 5 -8 6
-29 11 -47 11 -17 0 -35 6 -39 13 -4 6 -4 9 1 5 4 -4 15 -3 22 4 8 6 36 11 61
11 29 0 36 1 17 4 -97 15 20 31 228 32 44 1 82 3 87 6 4 3 10 16 12 30 4 19 0
29 -15 36 -14 8 -18 8 -13 0 4 -6 0 -11 -8 -11 -19 0 -21 21 -4 38 15 15 55
16 60 1 3 -8 10 -9 23 -2 11 6 37 9 57 7 22 -2 38 1 41 9 2 7 2 1 0 -12 -3
-18 0 -22 11 -18 9 4 16 2 16 -4 0 -6 4 -8 8 -5 5 3 23 -4 41 -15 18 -11 34
-19 36 -17 1 2 7 12 12 22 10 18 11 18 23 -5 7 -13 21 -33 31 -45 10 -11 20
-32 21 -45 2 -27 24 -35 32 -12 6 15 46 18 46 3 0 -5 -6 -13 -13 -17 -6 -4
-18 -20 -25 -34 -21 -39 -63 -89 -56 -64 4 11 -6 3 -22 -18 -16 -22 -33 -36
-41 -32 -8 2 -11 0 -8 -5 7 -12 -52 -7 -63 5 -4 5 -1 5 6 1 13 -8 16 12 4 30
-9 14 -42 14 -43 0 0 -6 -4 -2 -9 9 -7 17 -9 17 -9 3 -1 -24 2 -34 12 -30 19
6 4 -14 -19 -25 -22 -10 -24 -10 -14 3 10 11 10 14 0 14 -7 0 -10 7 -6 15 3 9
0 15 -9 15 -9 0 -16 16 -21 45 -3 25 -10 48 -15 51 -6 3 -8 -6 -5 -20 2 -14
-1 -39 -7 -57 -11 -29 -10 -32 18 -54 16 -13 25 -28 21 -32 -5 -4 -11 -2 -13
5 -3 6 -9 12 -14 12 -4 0 -6 -7 -2 -16 3 -9 13 -14 24 -11 22 6 22 5 7 -28
l-11 -25 -18 41 c-15 32 -21 38 -31 28 -7 -6 -14 -30 -15 -53 -3 -42 -36 -81
-58 -68 -5 3 -2 -4 8 -15 23 -27 22 -51 -5 -74 -24 -19 -43 -25 -34 -10 8 13
-76 22 -212 22 -96 -1 -126 -4 -138 -16 -18 -17 -44 -20 -44 -4 0 5 4 8 9 5 5
-3 15 2 22 11 8 10 9 14 2 10 -18 -11 -25 9 -8 23 22 18 18 25 -15 28 -25 2
-32 -3 -44 -32 -11 -27 -23 -37 -53 -45 -50 -14 -58 -14 -73 4 -11 13 -7 15
23 15 42 0 57 32 27 58 -11 8 -16 20 -13 25 3 5 -3 4 -13 -1 -25 -13 -96 -18
-112 -8 -7 4 -9 12 -6 18 5 7 -2 9 -19 6 -25 -5 -25 -4 -21 46 3 28 7 59 10
69 7 24 -5 59 -18 51 -7 -5 -9 0 -6 14 4 12 2 22 -2 22 -14 0 -49 104 -38 111
6 4 7 20 3 38 -4 17 -11 29 -16 25 -5 -3 -9 4 -9 15 0 12 4 21 10 21 5 0 14
19 21 43 6 23 15 47 20 53 6 8 0 15 -21 24 -16 7 -30 17 -30 23 0 6 -7 2 -16
-9 -8 -10 -12 -13 -9 -6 6 11 3 12 -14 3 -24 -13 -28 -23 -6 -15 8 4 15 1 15
-5 0 -8 5 -9 19 -1 29 15 31 13 30 -32 -1 -24 -3 -36 -6 -27 -4 18 -43 15 -43
-3 0 -6 7 -7 16 -4 10 4 14 1 11 -6 -2 -7 -12 -12 -21 -12 -9 1 -16 -2 -16 -6
0 -4 -18 -3 -40 2 -21 6 -38 15 -37 22 1 6 -5 11 -13 11 -8 0 -18 4 -21 8 -3
5 -9 2 -12 -7 -4 -11 -1 -16 10 -16 9 0 24 -7 32 -15 9 -8 33 -15 54 -17 41
-2 44 -16 6 -35 -24 -13 -24 -13 -1 -13 12 0 22 5 22 10 0 6 7 10 15 10 12 0
15 -14 15 -70 l0 -70 -27 17 c-15 10 -36 16 -49 15 -13 -2 -24 4 -28 15 -7 17
-8 17 -23 -2 -12 -15 -14 -16 -10 -3 3 9 1 18 -4 20 -5 2 -11 13 -12 26 0 12
-9 25 -19 28 -10 3 -18 10 -18 15 0 5 -4 9 -9 9 -4 0 -7 -17 -4 -37 2 -28 1
-34 -7 -23 -5 8 -10 13 -11 10 0 -3 -2 -13 -4 -23 -2 -10 3 -21 10 -24 8 -3
13 -17 12 -34 -2 -32 -7 -35 -25 -17 -16 16 -15 28 3 28 12 0 9 7 -10 27 -28
31 -31 41 -12 39 6 0 13 4 14 9 2 6 -5 10 -15 10 -27 0 -45 15 -33 29 5 6 7
16 3 22 -11 17 -40 24 -45 11 -2 -7 -9 -2 -16 11 -9 18 -16 21 -26 12 -9 -8
-13 -7 -12 2 1 33 -4 49 -13 43 -6 -4 -27 8 -48 26 -20 18 -29 30 -19 26 17
-6 18 -2 12 58 -6 53 -5 65 6 62 8 -2 11 -2 7 0 -5 3 -3 13 3 24 5 11 7 25 3
31 -4 7 -9 25 -11 41 -3 25 -1 27 12 13 8 -8 15 -21 15 -30 0 -8 8 -30 19 -48
11 -19 18 -49 17 -70 -1 -21 1 -38 5 -38 10 0 5 -34 -6 -42 -14 -11 7 -10 24
1 10 7 11 13 1 31 -14 26 -5 40 13 18 6 -9 19 -18 26 -20 10 -3 15 -19 16 -48
1 -24 -1 -38 -3 -32 -2 7 -10 12 -18 12 -9 0 -12 5 -8 11 4 7 -2 6 -17 -2 -23
-12 -23 -11 -9 7 9 12 9 15 1 7 -7 -6 -19 -10 -25 -9 -6 2 -8 1 -3 -1 4 -3 7
-14 7 -26 0 -16 3 -18 9 -9 6 10 10 7 15 -12 4 -15 11 -24 15 -21 5 3 7 15 3
28 -5 20 -4 21 12 8 15 -12 21 -11 46 7 34 26 41 27 34 7 -4 -8 -1 -15 5 -15
6 0 11 -7 11 -15 0 -8 5 -15 11 -15 5 0 7 -6 3 -12 -6 -10 -5 -10 8 -1 8 7 17
12 19 10 2 -1 3 0 2 2 -1 2 3 13 9 24 8 16 8 19 -4 14 -9 -3 -15 1 -15 9 0 8
11 14 26 15 l26 1 -25 7 c-26 7 -17 20 11 16 11 -2 15 4 13 21 -1 13 2 22 7
18 9 -5 13 9 10 34 -1 6 3 12 9 12 6 0 8 -5 4 -12 -4 -7 -3 -8 4 -4 14 8 5 33
-14 40 -9 3 -13 10 -10 15 3 5 -2 15 -11 22 -9 8 -14 9 -10 3 4 -7 -7 -21 -26
-34 -17 -12 -43 -36 -56 -54 -23 -30 -61 -46 -61 -25 0 5 -6 9 -13 9 -7 0 -13
9 -14 20 -1 11 -9 27 -17 36 -9 9 -14 19 -11 24 3 5 0 10 -7 12 -6 2 -12 20
-12 40 -1 20 -4 34 -8 32 -9 -6 -18 11 -23 43 -2 16 -9 44 -16 63 -6 19 -17
52 -25 73 -11 33 -11 37 4 37 15 1 15 2 0 11 -10 5 -18 19 -18 29 0 10 8 24
18 29 9 6 13 11 9 11 -4 0 -3 9 4 21 7 13 17 19 29 16 13 -3 17 0 13 9 -3 8 0
14 7 14 8 0 11 9 8 25 -4 18 -1 25 10 25 13 0 12 3 -4 15 -15 12 -16 16 -5 24
7 4 9 11 4 14 -5 3 -7 22 -5 42 3 28 8 35 20 30 9 -3 13 -3 10 1 -7 7 18 37
26 32 7 -4 35 35 36 49 0 8 -9 7 -30 -3 -36 -18 -75 -15 -75 6 0 11 13 15 50
17 52 2 93 7 135 18 24 6 25 6 5 -10 -11 -9 -30 -18 -42 -22 -13 -3 -23 -11
-23 -18 0 -21 18 -28 22 -8 2 10 13 17 31 17 33 2 35 -8 5 -28 -12 -9 -20 -16
-16 -16 3 0 15 -3 25 -6 15 -5 15 -4 3 5 -13 9 -13 10 0 15 34 10 140 28 176
30 37 1 139 44 129 54 -2 3 -15 -2 -27 -10 -42 -27 -82 -31 -109 -10 -15 12
-36 19 -54 17 -28 -3 -29 -3 -11 10 17 13 17 14 -8 11 -14 -1 -36 -11 -48 -22
-19 -17 -21 -17 -15 -1 7 20 -14 21 -153 7 -98 -9 -112 -3 -87 40 14 24 16 34
6 51 -6 13 -7 19 -1 15 6 -3 13 -2 16 3 4 5 2 12 -3 15 -5 3 -9 23 -9 43 0 21
-5 51 -11 66 -6 16 -9 38 -5 51 3 12 0 35 -7 51 -7 17 -15 50 -18 75 l-6 44
-45 2 c-60 3 -116 -12 -133 -36 -11 -16 -25 -19 -85 -19 -40 0 -72 5 -72 10 0
5 26 9 58 10 31 0 50 3 42 7 -8 4 -15 17 -16 29 0 12 3 20 7 18 4 -3 13 3 20
13 13 15 12 16 -3 4 -22 -17 -29 -4 -23 49 6 63 9 75 25 95 13 16 13 17 0 9
-13 -8 -13 -6 -1 8 7 9 17 15 21 12 5 -3 10 0 12 7 5 15 38 -13 38 -31 0 -20
34 -51 55 -51 12 0 27 6 33 12 10 10 15 10 22 -2 8 -13 10 -12 10 3 0 9 -6 17
-14 17 -15 0 -32 37 -22 47 3 3 1 14 -5 25 -10 18 -12 19 -29 3 -21 -19 -36
-5 -24 23 4 9 8 23 10 30 4 23 14 27 15 6 1 -15 3 -13 9 6 7 23 8 23 9 3 1
-12 6 -25 11 -28 11 -7 12 0 4 33 -5 19 -12 22 -30 18 -17 -5 -24 -2 -24 9 0
8 -8 16 -17 16 -17 1 -17 2 0 6 15 4 16 7 5 21 -11 13 -11 15 3 10 11 -4 16
-1 15 9 -2 23 30 40 51 27 14 -8 28 -7 57 6 42 17 86 9 86 -17 0 -7 4 -13 10
-13 5 0 6 8 3 17 -5 13 -2 15 11 10 10 -4 22 -7 28 -7 6 0 8 -9 5 -21 -5 -20
-5 -20 13 -4 11 10 18 21 15 24 -2 4 10 8 26 9 46 4 55 -32 35 -143 -14 -79
-19 -161 -17 -245 1 -24 3 -25 69 -24 37 0 75 -3 86 -9 12 -6 16 -6 12 1 -3 5
1 12 9 16 8 3 15 12 15 21 0 8 5 15 10 15 6 0 10 -12 10 -26 0 -16 -4 -23 -12
-18 -7 5 -8 3 -3 -5 11 -19 28 2 29 37 1 16 6 29 11 28 6 -1 0 2 -12 8 -25 11
-32 32 -8 22 12 -4 15 3 15 37 0 23 5 83 10 132 20 181 21 165 -5 165 -25 0
-35 -17 -35 -56 0 -14 -4 -23 -9 -19 -11 6 -9 43 5 66 10 19 35 29 49 21 5 -3
23 -5 40 -5z m-140 -37 c-3 -5 -11 -10 -16 -10 -6 0 -7 5 -4 10 3 6 11 10 16
10 6 0 7 -4 4 -10z m72 -37 c-3 -10 -5 -4 -5 12 0 17 2 24 5 18 2 -7 2 -21 0
-30z m393 27 c0 -5 -7 -7 -15 -4 -8 4 -15 8 -15 10 0 2 7 4 15 4 8 0 15 -4 15
-10z m791 -4 c-4 -6 -11 -18 -14 -26 -3 -9 -6 -5 -6 11 -1 16 4 26 14 26 9 0
11 -4 6 -11z m600 -27 c-3 -8 -7 -53 -9 -101 -3 -63 -8 -91 -20 -100 -14 -12
-14 -10 -3 10 13 25 13 132 -1 132 -4 0 -8 -4 -8 -10 0 -6 -9 -6 -26 1 -15 5
-29 7 -32 4 -8 -8 -33 16 -27 26 3 4 17 4 31 -1 43 -17 71 -12 78 13 3 12 1
24 -4 25 -18 6 -11 24 8 20 9 -2 15 -11 13 -19z m-1791 -38 c0 -6 -4 -13 -10
-16 -5 -3 -10 1 -10 9 0 9 5 16 10 16 6 0 10 -4 10 -9z m-1336 -36 c-14 -19
-32 -35 -39 -35 -13 0 44 69 58 69 4 1 -4 -15 -19 -34z m720 11 c-3 -9 -12
-12 -22 -9 -15 6 -9 11 25 22 1 1 0 -5 -3 -13z m1013 -18 c-3 -8 -6 -5 -6 6
-1 11 2 17 5 13 3 -3 4 -12 1 -19z m-381 -15 c-3 -8 -6 -19 -6 -24 0 -6 -4 -7
-10 -4 -15 9 -8 54 8 48 7 -3 11 -12 8 -20z m1063 23 c-10 -9 -79 -14 -74 -5
4 5 22 9 42 9 20 0 34 -2 32 -4z m51 -6 c0 -5 -7 -10 -16 -10 -8 0 -12 5 -9
10 3 6 10 10 16 10 5 0 9 -4 9 -10z m576 -26 c-21 -21 -26 -16 -15 15 7 18 13
21 21 13 8 -8 6 -15 -6 -28z m-1586 10 c0 -8 -5 -12 -10 -9 -6 4 -8 11 -5 16
9 14 15 11 15 -7z m1059 -6 c-1 -18 -2 -19 -6 -5 -2 9 -8 15 -13 12 -5 -3 -11
-1 -15 5 -3 5 3 10 14 10 15 0 21 -6 20 -22z m-780 -40 c-10 -55 -19 -78 -30
-78 -5 0 -4 12 1 26 6 14 8 30 5 35 -5 7 22 59 30 59 1 0 -1 -19 -6 -42z
m-297 0 c-7 -7 -12 -8 -12 -2 0 14 12 26 19 19 2 -3 -1 -11 -7 -17z m1008 18
c0 -2 -7 -6 -15 -10 -8 -3 -15 -1 -15 4 0 6 7 10 15 10 8 0 15 -2 15 -4z
m-263 -21 c0 -8 -7 -15 -15 -15 -12 0 -12 3 -2 15 7 8 13 15 15 15 1 0 2 -7 2
-15z m74 -8 c-10 -9 -11 -8 -5 6 3 10 9 15 12 12 3 -3 0 -11 -7 -18z m399 13
c-8 -5 -28 -10 -45 -10 -16 0 -37 5 -45 10 -11 7 3 10 45 10 42 0 56 -3 45
-10z m611 -20 c22 0 39 -5 39 -11 0 -8 5 -8 15 1 8 7 15 8 15 3 0 -6 12 -9 28
-6 20 2 17 -1 -13 -13 -29 -11 -55 -14 -95 -9 -30 4 -63 6 -73 6 -9 0 -15 4
-12 10 4 5 -2 9 -12 10 -10 1 0 7 22 14 22 6 42 8 43 4 2 -5 21 -9 43 -9z
m-1041 2 c0 -4 -10 -13 -22 -21 -23 -14 -23 -14 -4 8 20 22 26 25 26 13z
m1182 -14 c-7 -7 -12 -8 -12 -2 0 6 3 14 7 17 3 4 9 5 12 2 2 -3 -1 -11 -7
-17z m-2572 3 c0 -5 -9 -11 -20 -14 -11 -3 -20 -1 -20 3 0 5 8 11 18 13 9 3
18 5 20 6 1 0 2 -3 2 -8z m610 -1 c0 -5 -4 -10 -10 -10 -5 0 -10 5 -10 10 0 6
5 10 10 10 6 0 10 -4 10 -10z m618 -6 c6 3 14 2 17 -4 4 -6 1 -9 -7 -8 -7 2
-12 -3 -10 -9 1 -7 -1 -13 -6 -13 -11 0 -32 37 -25 44 4 3 10 1 14 -5 4 -6 11
-9 17 -5z m-1250 -42 c6 -18 -15 -14 -22 4 -4 10 -1 14 6 12 6 -2 14 -10 16
-16z m357 -22 c3 -5 1 -10 -4 -10 -6 0 -11 5 -11 10 0 6 2 10 4 10 3 0 8 -4
11 -10z m-700 -89 c-3 -2 -11 1 -18 7 -8 7 -18 8 -22 4 -5 -4 -5 -1 -1 5 5 10
11 10 26 1 11 -7 17 -14 15 -17z m185 15 c0 -2 -7 -7 -16 -10 -8 -3 -12 -2 -9
4 6 10 25 14 25 6z m2770 -138 c0 -45 -2 -79 -6 -76 -10 11 -14 169 -4 163 6
-3 10 -43 10 -87z m-2950 78 c0 -3 -4 -8 -10 -11 -5 -3 -10 -1 -10 4 0 6 5 11
10 11 6 0 10 -2 10 -4z m20 -20 c0 -2 -7 -9 -15 -16 -13 -11 -14 -10 -9 4 5
14 24 23 24 12z m2 -38 c-7 -7 -12 -36 -12 -65 0 -41 -4 -54 -19 -63 -25 -13
-34 -13 -26 0 3 6 1 10 -6 10 -7 0 -5 6 6 14 10 7 19 20 21 29 5 37 26 87 37
87 8 0 7 -4 -1 -12z m65 -4 c-3 -3 -12 -4 -19 -1 -8 3 -5 6 6 6 11 1 17 -2 13
-5z m-15 -36 c-7 -7 -12 -8 -12 -2 0 14 12 26 19 19 2 -3 -1 -11 -7 -17z m13
-92 c-8 -60 -36 -116 -33 -63 1 15 5 27 9 27 3 0 9 23 13 51 4 28 9 49 12 46
3 -3 3 -30 -1 -61z m2498 27 c-8 -3 -13 -25 -13 -59 0 -30 -3 -54 -8 -54 -4 0
-7 26 -7 58 0 51 2 58 20 59 11 1 14 -1 8 -4z m-2523 -43 c0 -5 -5 -10 -11
-10 -5 0 -7 5 -4 10 3 6 8 10 11 10 2 0 4 -4 4 -10z m2461 -27 c-8 -15 -10
-15 -11 -2 0 17 10 32 18 25 2 -3 -1 -13 -7 -23z m-2571 7 c-20 -13 -33 -13
-25 0 3 6 14 10 23 10 15 0 15 -2 2 -10z m87 -22 c-3 -8 -6 -5 -6 6 -1 11 2
17 5 13 3 -3 4 -12 1 -19z m2890 0 c-3 -8 -6 -5 -6 6 -1 11 2 17 5 13 3 -3 4
-12 1 -19z m-2927 -28 l38 -40 -19 -39 c-10 -22 -24 -41 -31 -44 -18 -6 -59
16 -88 49 -14 16 -18 23 -9 16 9 -6 19 -8 23 -4 4 4 6 1 4 -7 -4 -18 44 -43
66 -35 9 3 16 15 16 26 0 12 -4 17 -12 12 -8 -5 -9 -2 -5 10 4 10 3 15 -3 11
-19 -12 -31 6 -15 21 16 17 20 44 6 44 -5 0 -12 -7 -15 -16 -4 -9 -9 -14 -12
-11 -7 6 5 47 13 47 3 0 22 -18 43 -40z m2720 16 c0 -3 -4 -8 -10 -11 -5 -3
-10 -1 -10 4 0 6 5 11 10 11 6 0 10 -2 10 -4z m70 -28 c0 -5 -7 -8 -16 -8 -11
0 -15 -6 -11 -19 3 -13 -3 -27 -16 -38 -20 -16 -20 -16 -8 0 7 9 9 17 4 17 -5
0 -9 9 -9 20 0 11 6 20 14 20 7 0 10 5 6 12 -4 7 -3 8 4 4 8 -4 12 0 12 11 0
15 2 16 10 3 5 -8 10 -18 10 -22z m-270 1 c0 -5 -4 -9 -10 -9 -5 0 -10 7 -10
16 0 8 5 12 10 9 6 -3 10 -10 10 -16z m360 -53 c0 -11 -5 -28 -11 -36 -9 -13
-10 -12 -5 2 3 10 1 28 -5 40 l-10 23 5 -22 c6 -30 -8 -29 -22 1 -9 21 -8 25
6 29 23 5 42 -11 42 -37z m-2535 24 c4 -6 -1 -23 -11 -38 -10 -15 -17 -31 -16
-35 1 -5 -2 -6 -7 -2 -6 3 -27 -2 -48 -12 -52 -23 -60 -26 -43 -14 12 8 12 13
0 36 -8 15 -16 22 -18 16 -7 -22 -21 -10 -18 16 2 19 10 27 26 30 13 2 26 6
29 8 9 10 100 5 106 -5z m-416 -84 c30 -31 52 -59 48 -63 -19 -19 -44 -10 -67
25 -41 60 -44 65 -31 58 22 -14 10 9 -16 32 -18 14 -21 19 -8 13 11 -5 44 -34
74 -65z m-403 29 c17 -13 16 -14 -16 -3 -43 14 -49 18 -24 18 11 0 29 -7 40
-15z m3377 0 c4 -8 2 -17 -3 -20 -6 -4 -10 3 -10 14 0 25 6 27 13 6z m-2546
-61 c-3 -3 -12 -4 -19 -1 -8 3 -5 6 6 6 11 1 17 -2 13 -5z m-261 -20 c18 -14
18 -14 -6 -3 -31 14 -36 19 -24 19 6 0 19 -7 30 -16z m317 -10 c-5 -15 -63
-20 -63 -6 0 14 7 17 38 18 22 1 29 -3 25 -12z m349 -6 c-7 -7 -12 -8 -12 -2
0 6 3 14 7 17 3 4 9 5 12 2 2 -3 -1 -11 -7 -17z m1878 8 c0 -2 -8 -10 -17 -17
-16 -13 -17 -12 -4 4 13 16 21 21 21 13z m-2660 -30 c0 5 5 1 11 -9 15 -26 3
-33 -21 -12 -23 21 -28 44 -5 25 8 -7 15 -9 15 -4z m2830 10 c0 -2 -8 -10 -17
-17 -16 -13 -17 -12 -4 4 13 16 21 21 21 13z m-1015 -26 c3 -5 4 -10 1 -10 -2
0 -11 -3 -19 -6 -8 -3 -17 2 -20 10 -7 18 27 23 38 6z m-1037 -7 c-10 -2 -26
-2 -35 0 -10 3 -2 5 17 5 19 0 27 -2 18 -5z m1847 -53 c-3 -5 -11 -10 -16 -10
-6 0 -7 5 -4 10 3 6 11 10 16 10 6 0 7 -4 4 -10z m-1290 -20 c7 -12 -22 -12
-50 0 -17 7 -15 9 12 9 17 1 35 -3 38 -9z m-1205 -21 c0 -11 -4 -17 -10 -14
-5 3 -10 13 -10 21 0 8 5 14 10 14 6 0 10 -9 10 -21z m1630 -8 c0 -5 -7 -14
-15 -21 -16 -14 -18 -10 -9 14 6 17 24 22 24 7z m-1432 -54 c14 6 15 5 2 -9
-16 -17 -31 -6 -29 22 1 11 2 11 6 -2 3 -11 10 -15 21 -11z m832 13 c13 -9 13
-10 0 -10 -8 0 -22 5 -30 10 -13 9 -13 10 0 10 8 0 22 -5 30 -10z m-884 -27
c-10 -10 -19 5 -10 18 6 11 8 11 12 0 2 -7 1 -15 -2 -18z m1434 17 c-8 -5 -19
-10 -25 -10 -5 0 -3 5 5 10 8 5 20 10 25 10 6 0 3 -5 -5 -10z m1010 -65 c0 -5
-5 -3 -10 5 -5 8 -10 20 -10 25 0 6 5 3 10 -5 5 -8 10 -19 10 -25z m-1240 -55
c0 -10 -41 -31 -48 -25 -1 1 0 10 4 19 7 17 44 23 44 6z m-1340 -40 c0 -5 -2
-10 -4 -10 -3 0 -8 5 -11 10 -3 6 -1 10 4 10 6 0 11 -4 11 -10z m2310 0 c0 -5
-5 -10 -11 -10 -5 0 -7 5 -4 10 3 6 8 10 11 10 2 0 4 -4 4 -10z m-2258 -64 c7
-13 7 -16 -1 -12 -6 4 -11 0 -11 -11 -1 -17 -1 -16 -12 1 -8 15 -8 21 0 24 8
2 7 12 -4 30 -15 26 -15 26 1 7 9 -11 21 -28 27 -39z m225 32 c-3 -8 -6 -5 -6
6 -1 11 2 17 5 13 3 -3 4 -12 1 -19z m-792 -38 c-3 -5 -15 -10 -26 -10 -11 0
-17 5 -14 10 3 6 15 10 26 10 11 0 17 -4 14 -10z m540 -70 c5 -17 4 -22 -3
-15 -5 6 -13 21 -17 35 -5 17 -4 22 3 15 5 -5 13 -21 17 -35z m25 14 c0 -8 -4
-12 -10 -9 -5 3 -10 10 -10 16 0 5 5 9 10 9 6 0 10 -7 10 -16z m251 -51 c13
-16 12 -17 -3 -4 -17 13 -22 21 -14 21 2 0 10 -8 17 -17z m2086 -18 c0 -8 -4
-12 -9 -9 -5 3 -6 10 -3 15 9 13 12 11 12 -6z m-2154 -103 c-2 -31 0 -51 3
-44 3 6 12 12 20 12 11 0 10 -5 -6 -22 -17 -19 -18 -23 -5 -31 9 -4 15 -22 15
-40 0 -23 -3 -28 -9 -18 -5 8 -7 20 -4 27 2 6 0 15 -6 19 -6 3 -11 0 -11 -7 0
-8 -5 -5 -11 6 -10 16 -11 46 -6 132 4 57 22 25 20 -34z m2871 -1 c3 -5 -1
-14 -8 -20 -12 -10 -13 -8 -9 8 6 23 9 25 17 12z m23 -23 c-3 -7 -5 -2 -5 12
0 14 2 19 5 13 2 -7 2 -19 0 -25z m-430 0 c-3 -8 -6 -5 -6 6 -1 11 2 17 5 13
3 -3 4 -12 1 -19z m332 -25 c0 10 6 15 11 12 6 -3 10 -1 10 4 0 6 4 11 9 11 5
0 7 -9 4 -20 -4 -16 -2 -19 12 -13 12 4 16 3 11 -5 -4 -6 0 -27 8 -47 8 -19
11 -35 7 -35 -5 0 -12 8 -16 18 -5 14 -9 12 -20 -14 -9 -21 -22 -33 -40 -36
-16 -4 -23 -2 -17 4 5 5 8 44 6 86 -2 54 -1 68 5 47 5 -17 9 -22 10 -12z
m-2723 -3 c0 -11 -6 -22 -13 -24 -8 -3 -13 2 -13 13 0 11 6 22 13 24 6 3 12 6
12 6 1 1 1 -8 1 -19z m-182 -6 c3 -8 2 -12 -4 -9 -6 3 -10 10 -10 16 0 14 7
11 14 -7z m2591 -4 c15 -3 20 -10 7 -10 -7 0 -12 -7 -12 -16 0 -14 2 -15 18
-3 15 13 16 12 4 -3 -7 -9 -17 -29 -22 -45 l-8 -28 -1 32 c-1 40 -11 64 -22
57 -5 -3 -9 4 -9 16 0 17 3 19 18 11 9 -5 22 -10 27 -11z m60 -10 c-3 -5 0
-10 8 -10 8 0 14 -11 14 -29 0 -23 -3 -27 -13 -17 -16 16 -22 66 -8 66 3 0 2
-4 -1 -10z m190 -42 c3 1 11 2 18 1 6 0 3 -4 -8 -9 -20 -8 -45 11 -45 34 0 6
7 2 16 -9 8 -11 17 -19 19 -17z m-2675 12 c0 -5 -5 -10 -11 -10 -5 0 -7 5 -4
10 3 6 8 10 11 10 2 0 4 -4 4 -10z m2375 0 c3 -5 1 -10 -4 -10 -6 0 -11 5 -11
10 0 6 2 10 4 10 3 0 8 -4 11 -10z m15 -50 c-14 -8 -4 -51 14 -62 8 -5 7 -11
-2 -20 -20 -20 -14 -38 13 -38 31 0 56 23 79 73 9 20 18 37 20 37 1 0 2 -13 1
-29 -1 -18 -11 -38 -26 -50 -13 -11 -19 -20 -13 -21 5 0 16 6 24 13 12 10 12
9 3 -3 -6 -8 -9 -25 -7 -37 2 -13 -1 -23 -6 -23 -13 0 -11 -68 3 -105 14 -36
31 -41 63 -20 18 12 24 27 30 75 4 33 11 60 16 60 6 0 8 16 6 35 -2 19 -2 32
1 30 2 -3 10 3 18 13 14 16 14 16 8 -3 -4 -11 -9 -36 -10 -56 -4 -46 -25 -118
-42 -145 -16 -26 -66 -49 -88 -41 -8 4 -18 24 -21 47 -4 22 -10 40 -15 40 -5
0 -7 -6 -5 -12 3 -7 7 -28 10 -46 4 -26 3 -30 -7 -20 -7 6 -14 21 -14 32 -5
73 -16 146 -22 146 -3 0 -17 -7 -30 -16 -19 -14 -25 -14 -32 -3 -12 19 -11 39
2 39 6 0 8 9 3 22 -11 37 -6 81 10 90 9 5 17 21 17 36 l2 27 4 -29 c3 -16 -1
-32 -7 -36z m142 35 c6 -29 -7 -34 -15 -6 -4 17 0 31 9 31 1 0 4 -11 6 -25z
m79 -6 c-5 -13 -10 -18 -10 -11 -1 7 -5 10 -11 7 -6 -3 -7 1 -4 9 3 9 10 13
15 10 5 -3 9 0 9 7 0 7 2 10 5 7 3 -3 1 -16 -4 -29z m-2698 -39 c4 0 10 7 13
15 10 24 24 17 24 -11 0 -17 -6 -28 -20 -31 -23 -6 -30 -5 -31 5 -1 4 -10 19
-20 34 -10 14 -19 32 -19 39 0 8 10 -1 23 -18 12 -18 26 -33 30 -33z m2651 38
c3 -13 5 -32 5 -43 l0 -20 -9 20 c-5 11 -9 14 -9 7 -1 -7 -6 -10 -11 -7 -8 5
-8 11 0 20 6 7 8 20 4 29 -3 9 -2 16 4 16 5 0 12 -10 16 -22z m-1724 -18 c-6
-12 -14 -19 -17 -17 -2 3 1 15 7 27 6 12 14 19 17 17 2 -3 -1 -15 -7 -27z
m426 -12 c-11 -15 -16 -18 -16 -7 0 16 21 42 28 34 2 -2 -3 -14 -12 -27z
m-409 -40 c-2 -13 -4 -5 -4 17 -1 22 1 32 4 23 2 -10 2 -28 0 -40z m159 43
c-3 -5 -15 -7 -26 -4 -28 7 -25 13 6 13 14 0 23 -4 20 -9z m57 2 c-7 -2 -21
-2 -30 0 -10 3 -4 5 12 5 17 0 24 -2 18 -5z m-1089 -28 c3 -8 1 -15 -4 -15 -6
0 -10 7 -10 15 0 8 2 15 4 15 2 0 6 -7 10 -15z m1721 5 c3 -5 1 -10 -4 -10 -6
0 -11 5 -11 10 0 6 2 10 4 10 3 0 8 -4 11 -10z m913 -37 c-15 -18 -21 -9 -13
18 6 16 9 18 16 8 4 -8 3 -19 -3 -26z m-2648 -13 c0 -5 -5 -10 -11 -10 -5 0
-7 5 -4 10 3 6 8 10 11 10 2 0 4 -4 4 -10z m1565 -6 c21 -5 43 -44 25 -44 -19
0 -40 13 -40 25 0 14 -17 15 -40 0 -12 -7 -13 -6 -3 7 7 8 9 19 5 23 -4 5 1 5
11 2 11 -4 29 -10 42 -13z m1008 -74 c3 -25 2 -38 -2 -30 -5 8 -11 35 -14 60
-3 25 -2 38 2 30 5 -8 11 -35 14 -60z m-2523 50 c0 -5 -5 -10 -11 -10 -5 0 -7
5 -4 10 3 6 8 10 11 10 2 0 4 -4 4 -10z m455 -70 c-3 -5 -11 -10 -16 -10 -6 0
-7 5 -4 10 3 6 11 10 16 10 6 0 7 -4 4 -10z m-444 -17 c13 -16 12 -17 -3 -4
-10 7 -18 15 -18 17 0 8 8 3 21 -13z m133 -1 c3 -5 -1 -9 -9 -9 -8 0 -12 4 -9
9 3 4 7 8 9 8 2 0 6 -4 9 -8z m1076 -1 c0 -10 -35 -21 -69 -21 -32 0 -21 10
21 20 46 11 48 11 48 1z m-1112 -86 c-3 -3 -13 7 -23 22 l-17 28 23 -22 c12
-12 20 -25 17 -28z m349 13 c-3 -8 -6 -5 -6 6 -1 11 2 17 5 13 3 -3 4 -12 1
-19z m1285 -20 c-7 -7 -12 -8 -12 -2 0 14 12 26 19 19 2 -3 -1 -11 -7 -17z
m-842 2 c0 -5 -15 -10 -32 -9 -31 1 -32 1 -8 9 35 11 40 11 40 0z m-624 -12
c5 -7 3 -8 -6 -3 -10 6 -12 4 -7 -9 4 -10 7 -24 7 -32 0 -8 5 -14 10 -14 6 0
10 8 10 17 0 21 7 14 12 -12 1 -11 9 -25 16 -30 10 -8 9 -11 -7 -12 -11 -1
-20 3 -18 9 1 6 -3 12 -10 15 -15 5 -10 -26 6 -36 9 -6 8 -11 -4 -21 -8 -7
-18 -10 -22 -6 -3 3 -1 6 5 6 7 0 12 5 12 11 0 5 -4 7 -10 4 -5 -3 -10 2 -11
12 -1 10 -3 39 -5 66 -3 45 6 61 22 35z m-83 -24 c-3 -9 -13 -13 -22 -10 -11
4 -10 2 3 -9 17 -13 17 -15 4 -15 -35 0 -33 45 2 47 13 1 17 -3 13 -13z m643
-11 c-10 -10 -19 5 -10 18 6 11 8 11 12 0 2 -7 1 -15 -2 -18z m-1096 -4 c0 -5
14 -28 30 -51 28 -38 29 -43 13 -49 -10 -4 -31 -19 -48 -33 -22 -20 -25 -25
-10 -20 18 5 18 4 3 -6 -14 -8 -26 -7 -53 6 -19 9 -35 19 -35 23 0 3 -3 17 -7
30 -5 19 -3 22 8 16 11 -6 12 -5 2 6 -11 10 -8 18 14 41 27 28 50 38 37 16 -6
-10 -5 -10 8 -1 8 7 19 9 23 5 5 -4 5 -1 1 6 -4 7 -12 10 -17 7 -5 -4 -9 -2
-9 4 0 11 21 20 33 14 4 -2 7 -8 7 -14z m610 1 c0 -5 -5 -10 -11 -10 -5 0 -7
5 -4 10 3 6 8 10 11 10 2 0 4 -4 4 -10z m-103 -68 c0 -15 -1 -19 -4 -9 -3 13
-8 15 -17 8 -8 -7 -12 -5 -12 8 0 29 32 23 33 -7z m1423 -126 c0 -2 -7 -7 -16
-10 -8 -3 -12 -2 -9 4 6 10 25 14 25 6z m-56 -83 c-11 -15 -26 -29 -34 -31 -8
-3 -2 7 13 22 15 15 27 32 27 38 0 6 3 8 7 5 4 -4 -2 -19 -13 -34z m-819 -103
c-3 -5 -1 -10 6 -10 10 0 10 -3 1 -12 -6 -6 -15 -9 -18 -5 -7 7 2 37 11 37 4
0 3 -4 0 -10z m235 -30 c0 -5 -12 -8 -27 -8 -109 2 -187 -3 -173 -12 11 -7 3
-10 -30 -10 l-44 0 39 21 c30 15 53 19 90 17 28 -3 66 -2 85 2 38 6 60 3 60
-10z m35 0 c-3 -5 -11 -10 -16 -10 -6 0 -7 5 -4 10 3 6 11 10 16 10 6 0 7 -4
4 -10z m135 6 c0 -2 -16 -6 -35 -8 -19 -2 -35 0 -35 4 0 4 16 8 35 8 19 0 35
-2 35 -4z m47 -2 c-3 -3 -12 -4 -19 -1 -8 3 -5 6 6 6 11 1 17 -2 13 -5z m-596
-20 c-25 -8 -48 -19 -52 -26 -4 -7 -11 -9 -14 -6 -12 11 5 27 38 37 51 15 76
10 28 -5z m109 12 c0 -3 -4 -8 -10 -11 -5 -3 -10 -1 -10 4 0 6 5 11 10 11 6 0
10 -2 10 -4z m53 -53 c-7 -2 -19 -2 -25 0 -7 3 -2 5 12 5 14 0 19 -2 13 -5z
m-1272 -360 c13 -16 12 -17 -3 -4 -17 13 -22 21 -14 21 2 0 10 -8 17 -17z"/>
<path d="M2605 3270 c-3 -5 -1 -10 4 -10 6 0 11 5 11 10 0 6 -2 10 -4 10 -3 0
-8 -4 -11 -10z"/>
<path d="M2673 3263 c20 -3 27 -10 27 -26 0 -14 3 -18 10 -11 20 20 0 44 -34
43 -30 -2 -30 -2 -3 -6z"/>
<path d="M2647 3213 c-2 -1 -20 -3 -41 -5 -40 -2 -62 -18 -24 -17 31 1 77 -7
85 -14 3 -3 2 -14 -2 -24 -5 -12 -9 -14 -12 -5 -3 6 -11 12 -19 12 -9 0 -12
-4 -9 -10 3 -5 0 -7 -8 -4 -8 3 -18 0 -22 -6 -5 -8 11 -10 54 -8 53 3 61 6 62
23 1 13 4 10 9 -10 7 -29 8 -29 9 -4 1 35 -9 42 -31 22 -17 -15 -18 -15 -18
10 0 19 6 27 23 29 15 3 11 5 -16 9 -21 3 -39 4 -40 2z"/>
<path d="M2695 3070 c-3 -5 -2 -10 4 -10 5 0 13 5 16 10 3 6 2 10 -4 10 -5 0
-13 -4 -16 -10z"/>
<path d="M850 3199 c0 -5 5 -7 10 -4 6 3 10 8 10 11 0 2 -4 4 -10 4 -5 0 -10
-5 -10 -11z"/>
<path d="M1156 3155 c-4 -12 1 -15 25 -13 27 2 28 4 13 15 -23 17 -31 16 -38
-2z"/>
<path d="M1020 3036 c0 -2 7 -7 16 -10 8 -3 12 -2 9 4 -6 10 -25 14 -25 6z"/>
<path d="M2429 2843 c-13 -15 -12 -15 9 -4 23 12 28 21 13 21 -5 0 -15 -7 -22
-17z"/>
<path d="M2540 2829 c0 -5 5 -7 10 -4 6 3 10 8 10 11 0 2 -4 4 -10 4 -5 0 -10
-5 -10 -11z"/>
<path d="M2571 2814 c0 -11 3 -14 6 -6 3 7 2 16 -1 19 -3 4 -6 -2 -5 -13z"/>
<path d="M2350 2780 c-30 -16 -32 -19 -12 -20 12 0 22 5 22 10 0 6 7 10 15 10
8 0 15 5 15 10 0 12 2 13 -40 -10z"/>
<path d="M2665 2791 c-3 -6 -18 -16 -34 -24 -25 -12 -31 -12 -43 -1 -11 12
-15 10 -26 -7 -8 -12 -9 -18 -3 -14 6 3 11 -1 11 -9 0 -18 -3 -19 -90 -16 -64
2 -66 1 -140 -53 -76 -55 -122 -118 -99 -133 6 -4 15 -1 19 6 5 8 47 12 134
13 69 1 126 3 126 5 0 1 -12 7 -27 13 l-28 11 25 10 c14 5 44 27 66 50 32 31
47 38 63 33 33 -10 25 12 -9 24 -16 5 -30 16 -30 23 0 9 3 9 10 -2 7 -12 12
-12 22 -2 6 6 29 12 50 12 40 0 63 24 52 54 -7 17 -39 22 -49 7z m-102 -114
c4 3 7 4 7 1 0 -3 -8 -12 -17 -19 -10 -7 -15 -9 -11 -5 4 5 2 16 -5 25 -10 14
-10 14 4 4 9 -7 19 -10 22 -6z"/>
<path d="M2480 2770 c-9 -6 -10 -10 -3 -10 6 0 15 5 18 10 8 12 4 12 -15 0z"/>
<path d="M2720 2710 c-13 -27 -21 -52 -18 -55 3 -3 15 17 27 46 12 28 21 53
18 55 -2 2 -14 -19 -27 -46z"/>
<path d="M2278 2733 c12 -2 30 -2 40 0 9 3 -1 5 -23 4 -22 0 -30 -2 -17 -4z"/>
<path d="M887 2712 c-19 -21 -24 -43 -6 -25 9 9 16 9 30 0 26 -16 34 -2 12 22
-19 21 -20 21 -36 3z"/>
<path d="M1785 2660 c-3 -5 -2 -10 4 -10 5 0 13 5 16 10 3 6 2 10 -4 10 -5 0
-13 -4 -16 -10z"/>
<path d="M2076 2645 c3 -16 8 -48 11 -69 5 -36 4 -39 -16 -33 -11 3 -24 1 -27
-4 -3 -5 0 -9 6 -9 6 0 9 -4 5 -9 -3 -5 4 -12 15 -16 17 -5 18 -10 9 -27 -9
-17 -8 -19 7 -16 12 2 19 13 19 31 2 21 -2 27 -12 22 -9 -3 -13 0 -10 7 2 7
11 12 21 10 18 -3 22 13 6 23 -6 4 -8 11 -5 16 3 5 -1 23 -9 41 -8 18 -17 40
-20 48 -3 8 -3 2 0 -15z"/>
<path d="M1767 2602 c-9 -21 -17 -47 -17 -56 0 -10 -5 -26 -10 -36 -7 -13 -7
-21 0 -25 5 -3 10 3 10 15 0 12 5 18 10 15 6 -4 7 -12 4 -18 -4 -7 -3 -9 1 -4
11 10 14 48 3 41 -4 -3 -8 4 -8 15 0 10 4 21 8 23 8 3 25 68 19 68 -2 0 -11
-17 -20 -38z"/>
<path d="M1248 2613 c7 -3 16 -2 19 1 4 3 -2 6 -13 5 -11 0 -14 -3 -6 -6z"/>
<path d="M1663 2541 c-12 -25 -30 -57 -40 -71 l-17 -25 27 24 c24 22 65 106
56 115 -2 2 -14 -17 -26 -43z"/>
<path d="M1828 2583 c7 -3 16 -2 19 1 4 3 -2 6 -13 5 -11 0 -14 -3 -6 -6z"/>
<path d="M1697 2530 c-3 -11 -1 -20 4 -20 5 0 9 9 9 20 0 11 -2 20 -4 20 -2 0
-6 -9 -9 -20z"/>
<path d="M1786 2508 c-4 -22 -1 -37 11 -51 10 -11 13 -18 8 -14 -23 13 -40
-12 -40 -60 l0 -48 -33 3 c-19 2 -32 -1 -32 -8 0 -6 -5 -8 -11 -4 -7 4 -10 1
-7 -7 4 -13 11 -15 61 -18 10 -1 15 -5 12 -11 -13 -21 23 -9 52 18 24 21 33
39 38 77 4 28 9 57 11 66 3 9 -3 19 -11 23 -9 3 -13 2 -10 -3 3 -5 1 -12 -4
-15 -12 -8 -19 36 -10 62 7 18 5 22 -10 22 -13 0 -20 -10 -25 -32z m44 -122
c0 -3 -4 -8 -10 -11 -5 -3 -10 -1 -10 4 0 6 5 11 10 11 6 0 10 -2 10 -4z m-10
-36 c0 -5 -5 -10 -11 -10 -5 0 -7 5 -4 10 3 6 8 10 11 10 2 0 4 -4 4 -10z"/>
<path d="M1837 2521 c-4 -17 -3 -21 5 -13 5 5 8 16 6 23 -3 8 -7 3 -11 -10z"/>
<path d="M2280 2514 c0 -8 5 -12 10 -9 6 4 8 11 5 16 -9 14 -15 11 -15 -7z"/>
<path d="M1670 2470 c-6 -11 -8 -20 -6 -20 3 0 10 9 16 20 6 11 8 20 6 20 -3
0 -10 -9 -16 -20z"/>
<path d="M2745 2481 c-25 -5 -27 -8 -12 -14 11 -4 27 -1 40 8 23 16 20 17 -28
6z"/>
<path d="M1589 2423 c-13 -16 -12 -17 4 -4 9 7 17 15 17 17 0 8 -8 3 -21 -13z"/>
<path d="M2072 2408 c-7 -7 -12 -19 -12 -27 0 -11 5 -8 16 7 18 25 15 39 -4
20z"/>
<path d="M1715 2379 c-4 -6 -5 -12 -2 -15 2 -3 7 2 10 11 7 17 1 20 -8 4z"/>
<path d="M1590 2300 c-42 -51 -144 -120 -180 -123 -26 -2 -26 -27 -1 -27 11 0
37 10 58 22 l38 22 -19 -22 c-11 -12 -16 -25 -13 -28 11 -11 112 101 140 154
15 29 25 52 23 52 -2 0 -23 -22 -46 -50z"/>
<path d="M2250 2280 c11 -22 23 -40 25 -40 3 0 -4 18 -15 40 -11 22 -23 40
-25 40 -3 0 4 -18 15 -40z"/>
<path d="M1509 2253 c-13 -16 -12 -17 4 -4 9 7 17 15 17 17 0 8 -8 3 -21 -13z"/>
<path d="M2932 2244 c-7 -8 -8 -14 -3 -14 10 0 25 19 20 25 -2 1 -10 -3 -17
-11z"/>
<path d="M1597 2223 c-4 -3 -7 -11 -7 -17 0 -6 5 -5 12 2 6 6 9 14 7 17 -3 3
-9 2 -12 -2z"/>
<path d="M2485 2220 c-3 -5 1 -10 10 -10 9 0 13 5 10 10 -3 6 -8 10 -10 10 -2
0 -7 -4 -10 -10z"/>
<path d="M2170 2200 c0 -6 5 -8 10 -5 7 4 9 -3 6 -18 -5 -26 14 -39 43 -29 10
3 7 9 -10 18 -24 14 -24 14 6 9 17 -3 24 -2 17 1 -6 3 -10 10 -6 15 3 5 -4 9
-15 9 -10 0 -26 3 -35 6 -9 3 -16 1 -16 -6z"/>
<path d="M1576 2174 c-9 -24 -7 -36 6 -32 13 5 22 48 9 48 -5 0 -12 -7 -15
-16z"/>
<path d="M2770 2140 c0 -7 129 -20 139 -13 10 7 -8 11 -71 16 -38 4 -68 2 -68
-3z"/>
<path d="M1592 2129 c-13 -5 -26 -18 -29 -29 -3 -11 -10 -20 -15 -20 -5 0 -3
-7 6 -15 20 -21 23 -19 30 15 3 18 12 30 21 30 9 0 13 -4 10 -10 -3 -5 -1 -10
4 -10 14 0 14 17 1 25 -6 4 -8 11 -5 16 7 11 7 11 -23 -2z"/>
<path d="M2920 2130 c0 -5 18 -10 41 -10 24 0 38 4 34 10 -3 6 -22 10 -41 10
-19 0 -34 -4 -34 -10z"/>
<path d="M1455 2099 c-12 -19 3 -22 27 -5 l22 16 -21 0 c-12 0 -25 -5 -28 -11z"/>
<path d="M2676 2098 c3 -4 33 -8 67 -7 73 1 66 6 -15 11 -31 3 -55 1 -52 -4z"/>
<path d="M1815 2080 c3 -5 8 -10 11 -10 2 0 4 5 4 10 0 6 -5 10 -11 10 -5 0
-7 -4 -4 -10z"/>
<path d="M1974 2068 l-19 -23 23 19 c12 11 22 21 22 23 0 8 -8 2 -26 -19z"/>
<path d="M2110 2071 c0 -6 -16 -7 -34 -4 -68 11 -95 -9 -101 -72 -1 -11 3 -23
9 -27 6 -5 2 -8 -11 -8 -13 0 -23 -4 -23 -10 0 -18 39 -10 50 10 9 16 8 20 -6
20 -14 0 -14 3 -4 15 11 13 15 13 21 3 6 -9 17 -4 42 20 33 32 57 41 57 22 0
-6 17 -10 40 -8 29 1 37 5 30 14 -6 6 -22 9 -38 7 -26 -4 -26 -4 -8 11 19 16
19 16 -2 16 -12 0 -22 -4 -22 -9z"/>
<path d="M1654 2034 c-18 -14 -18 -15 4 -4 12 6 22 13 22 15 0 8 -5 6 -26 -11z"/>
<path d="M2200 2021 c0 -6 4 -13 10 -16 6 -3 7 1 4 9 -7 18 -14 21 -14 7z"/>
<path d="M2308 1958 c5 -5 16 -8 23 -6 8 3 3 7 -10 11 -17 4 -21 3 -13 -5z"/>
<path d="M2768 1943 c18 -2 45 -2 60 0 15 2 0 4 -33 4 -33 0 -45 -2 -27 -4z"/>
<path d="M2320 1930 c0 -14 15 -19 29 -11 9 6 7 10 -8 14 -12 3 -21 1 -21 -3z"/>
<path d="M2893 1920 c-1 -11 2 -20 7 -20 10 0 20 26 13 34 -12 11 -19 6 -20
-14z"/>
<path d="M2410 1885 c0 -8 4 -15 9 -15 5 0 11 7 15 15 3 9 0 15 -9 15 -8 0
-15 -7 -15 -15z"/>
<path d="M2885 1844 c-3 -26 -3 -50 2 -55 5 -5 10 15 11 46 3 67 -3 71 -13 9z"/>
<path d="M2368 1863 c7 -3 16 -2 19 1 4 3 -2 6 -13 5 -11 0 -14 -3 -6 -6z"/>
<path d="M2569 1833 c-13 -16 -12 -17 4 -4 16 13 21 21 13 21 -2 0 -10 -8 -17
-17z"/>
<path d="M1432 1790 c0 -19 2 -27 5 -17 2 9 2 25 0 35 -3 9 -5 1 -5 -18z"/>
<path d="M2018 1726 c-19 -14 -25 -32 -8 -21 6 4 10 -5 10 -21 0 -15 3 -24 7
-20 4 4 8 23 8 42 0 18 0 34 0 34 0 0 -8 -7 -17 -14z"/>
<path d="M1995 1680 c-3 -5 -1 -10 4 -10 6 0 11 5 11 10 0 6 -2 10 -4 10 -3 0
-8 -4 -11 -10z"/>
<path d="M2120 1620 c8 -5 20 -10 25 -10 6 0 3 5 -5 10 -8 5 -19 10 -25 10 -5
0 -3 -5 5 -10z"/>
<path d="M1220 1430 c-6 -11 -8 -20 -6 -20 3 0 10 9 16 20 6 11 8 20 6 20 -3
0 -10 -9 -16 -20z"/>
<path d="M1141 1423 c7 -12 15 -20 18 -17 3 2 -3 12 -13 22 -17 16 -18 16 -5
-5z"/>
<path d="M2558 1413 c7 -3 16 -2 19 1 4 3 -2 6 -13 5 -11 0 -14 -3 -6 -6z"/>
<path d="M984 1385 c-11 -8 -14 -14 -6 -15 8 0 10 -9 6 -27 -8 -31 -5 -30 19
9 16 26 16 27 0 21 -16 -6 -16 -5 -4 10 17 21 11 22 -15 2z"/>
<path d="M1171 1357 c-13 -21 -12 -21 5 -5 10 10 16 20 13 22 -3 3 -11 -5 -18
-17z"/>
<path d="M1440 1369 c-12 -9 -10 -10 8 -6 19 5 22 2 17 -11 -4 -9 -8 -23 -8
-29 0 -7 -3 -13 -7 -13 -3 0 -12 6 -19 13 -11 10 -13 9 -7 -1 10 -17 62 -43
71 -34 5 4 5 2 1 -5 -4 -7 5 -18 23 -28 37 -18 66 -20 32 -1 -18 10 -21 15
-10 20 8 3 4 4 -9 2 -13 -3 -22 0 -21 7 4 33 -1 40 -17 26 -13 -10 -17 -10
-25 2 -5 9 -4 18 4 24 34 28 3 60 -33 34z"/>
<path d="M1013 1343 c-3 -10 -8 -21 -10 -25 -2 -5 0 -8 5 -8 5 0 12 11 14 25
6 29 0 33 -9 8z"/>
<path d="M1400 1349 c0 -5 5 -7 10 -4 6 3 10 8 10 11 0 2 -4 4 -10 4 -5 0 -10
-5 -10 -11z"/>
<path d="M983 1287 c-3 -5 2 -15 11 -23 9 -8 14 -11 11 -8 -2 4 0 14 5 24 6
12 5 17 -6 17 -8 0 -17 -5 -21 -10z"/>
<path d="M1307 1293 c-4 -3 -7 -11 -7 -16 0 -6 3 -7 7 -4 3 4 13 1 22 -6 14
-11 15 -10 1 8 -8 11 -15 21 -16 23 0 1 -4 -1 -7 -5z"/>
<path d="M1285 1250 c-3 -5 8 -16 24 -25 27 -13 30 -13 25 0 -4 8 -16 15 -28
15 -17 0 -18 2 -6 10 9 6 10 10 3 10 -6 0 -14 -4 -18 -10z"/>
<path d="M1362 1240 c-8 -13 -8 -20 -2 -20 6 0 13 7 17 15 9 24 -1 27 -15 5z"/>
<path d="M1406 1243 c-6 -14 -5 -15 5 -6 7 7 10 15 7 18 -3 3 -9 -2 -12 -12z"/>
<path d="M1106 1201 c-4 -7 -5 -15 -2 -18 9 -9 19 4 14 18 -4 11 -6 11 -12 0z"/>
<path d="M1130 1197 c0 -25 11 -47 21 -41 5 3 6 10 3 16 -4 6 -2 8 4 4 6 -3
14 -1 18 6 4 7 3 10 -1 5 -5 -4 -17 0 -27 10 -16 14 -18 14 -18 0z"/>
<path d="M1250 1164 c0 -14 4 -23 9 -20 5 3 7 15 4 26 -7 28 -13 25 -13 -6z"/>
<path d="M1157 1145 c-23 -18 -26 -23 -13 -28 8 -3 18 -2 21 3 3 5 13 6 23 3
15 -6 16 -5 2 12 -9 11 -10 16 -2 11 6 -4 12 -3 12 3 0 20 -16 19 -43 -4z"/>
<path d="M1225 1160 c-3 -5 -1 -10 4 -10 6 0 11 5 11 10 0 6 -2 10 -4 10 -3 0
-8 -4 -11 -10z"/>
<path d="M2264 1129 c0 -12 6 -24 12 -26 6 -2 11 6 10 18 0 12 -6 24 -12 26
-6 2 -11 -6 -10 -18z"/>
<path d="M2370 1130 c-10 -6 -9 -9 1 -13 8 -3 9 -6 2 -6 -15 -1 7 -50 25 -52
6 -1 17 -3 22 -4 6 -1 22 -3 37 -4 34 -1 22 -13 -30 -28 l-42 -12 50 6 c28 3
51 6 51 7 8 6 10 77 3 82 -5 3 -9 -6 -9 -20 0 -14 -5 -26 -11 -26 -5 0 -8 4
-5 9 3 5 -6 12 -19 15 -14 4 -23 11 -20 16 4 6 11 8 16 5 5 -4 9 -2 9 3 0 8
-18 17 -56 27 -6 2 -17 -1 -24 -5z"/>
<path d="M1498 1123 c7 -3 16 -2 19 1 4 3 -2 6 -13 5 -11 0 -14 -3 -6 -6z"/>
<path d="M2300 1110 c0 -5 5 -10 11 -10 5 0 7 5 4 10 -3 6 -8 10 -11 10 -2 0
-4 -4 -4 -10z"/>
<path d="M1357 1103 c-4 -3 -7 -11 -7 -17 0 -6 5 -5 12 2 6 6 9 14 7 17 -3 3
-9 2 -12 -2z"/>
<path d="M1662 1043 c-7 -10 -10 -12 -7 -6 4 8 1 11 -9 7 -20 -8 -11 -24 14
-24 10 0 22 -4 25 -10 10 -16 28 -12 22 5 -4 8 -1 17 5 21 7 4 6 9 -3 15 -21
13 -33 11 -47 -8z"/>
<path d="M2135 1030 c3 -5 10 -10 16 -10 5 0 9 5 9 10 0 6 -7 10 -16 10 -8 0
-12 -4 -9 -10z"/>
<path d="M1466 1022 c-3 -5 1 -9 9 -9 8 0 15 4 15 9 0 4 -4 8 -9 8 -6 0 -12
-4 -15 -8z"/>
<path d="M2105 1009 c-9 -14 -2 -20 24 -22 11 -1 21 -6 21 -11 0 -5 3 -7 6 -4
8 9 -19 48 -33 48 -6 0 -15 -5 -18 -11z"/>
<path d="M1888 953 c7 -3 16 -2 19 1 4 3 -2 6 -13 5 -11 0 -14 -3 -6 -6z"/>
<path d="M2385 950 c-3 -5 -2 -10 4 -10 5 0 13 5 16 10 3 6 2 10 -4 10 -5 0
-13 -4 -16 -10z"/>
<path d="M1675 920 c-3 -6 1 -7 9 -4 18 7 21 14 7 14 -6 0 -13 -4 -16 -10z"/>
<path d="M2148 858 c-7 -70 -20 -103 -47 -127 -11 -9 -8 -9 9 2 29 17 52 89
48 152 -2 32 -4 26 -10 -27z"/>
<path d="M1742 890 c0 -14 2 -19 5 -12 2 6 2 18 0 25 -3 6 -5 1 -5 -13z"/>
<path d="M1909 881 c-10 -4 -14 -12 -10 -23 5 -15 8 -15 25 -2 23 16 11 36
-15 25z"/>
<path d="M1870 846 c0 -9 5 -16 10 -16 6 0 10 4 10 9 0 6 -4 13 -10 16 -5 3
-10 -1 -10 -9z"/>
<path d="M2117 688 c-8 -28 -1 -38 24 -38 11 0 17 5 14 10 -4 6 -10 8 -14 6
-4 -3 -7 4 -8 14 -1 15 7 20 35 23 l37 4 -41 1 c-35 2 -43 -1 -47 -20z"/>
<path d="M430 2222 c0 -10 26 -34 50 -47 8 -4 2 6 -14 23 -32 34 -36 37 -36
24z"/>
<path d="M3686 1385 c6 -40 11 -52 18 -44 2 2 -3 22 -10 44 l-13 40 5 -40z"/>
<path d="M670 920 c-14 -11 -31 -17 -39 -14 -10 3 -9 -2 4 -16 19 -21 31 -27
20 -11 -3 5 9 21 27 35 18 14 29 26 23 26 -5 0 -21 -9 -35 -20z"/>
<path d="M920 3766 c29 -18 60 -21 60 -6 0 6 -11 10 -24 10 -13 0 -33 3 -43 6
-10 3 -7 -2 7 -10z"/>
<path d="M513 3750 c-13 -5 -23 -17 -23 -25 0 -9 5 -13 10 -10 6 3 10 1 10 -5
0 -7 5 -6 14 2 8 7 12 16 9 21 -2 4 3 7 11 7 9 0 16 5 16 10 0 12 -17 12 -47
0z"/>
<path d="M610 3741 c7 -14 7 -20 -1 -23 -6 -2 -9 -16 -7 -32 l3 -27 33 31 c44
44 43 70 -3 70 -32 0 -35 -2 -25 -19z"/>
<path d="M565 3730 c-3 -5 1 -10 10 -10 9 0 13 5 10 10 -3 6 -8 10 -10 10 -2
0 -7 -4 -10 -10z"/>
<path d="M567 3674 c3 -7 9 -14 14 -14 14 0 10 17 -5 23 -10 4 -13 1 -9 -9z"/>
<path d="M854 3649 c-3 -6 -20 -19 -38 -30 -36 -22 -28 -26 13 -5 32 17 59 46
43 46 -6 0 -14 -5 -18 -11z"/>
<path d="M377 3630 c3 -11 7 -20 9 -20 2 0 4 9 4 20 0 11 -4 20 -9 20 -5 0 -7
-9 -4 -20z"/>
<path d="M560 3635 c-7 -9 -8 -15 -2 -15 5 0 12 7 16 15 3 8 4 15 2 15 -2 0
-9 -7 -16 -15z"/>
<path d="M2630 3575 c-24 -25 -42 -45 -39 -45 3 0 25 20 49 45 24 25 42 45 39
45 -3 0 -25 -20 -49 -45z"/>
<path d="M1509 3533 c-13 -16 -12 -17 4 -4 16 13 21 21 13 21 -2 0 -10 -8 -17
-17z"/>
<path d="M1999 3394 c-41 -44 -110 -84 -146 -84 -42 0 -43 -17 0 -28 51 -14
82 7 151 101 31 43 30 48 -5 11z"/>
<path d="M1518 3403 c7 -3 16 -2 19 1 4 3 -2 6 -13 5 -11 0 -14 -3 -6 -6z"/>
<path d="M450 3184 c-18 -20 -27 -35 -20 -32 13 4 67 68 58 68 -3 0 -20 -16
-38 -36z"/>
</g>
</svg>
